<svg width="20" height="20" viewBox="0 0 20 20" fill="none" xmlns="http://www.w3.org/2000/svg">
<path d="M20 3.39844C20 2.42762 19.213 1.64062 18.2422 1.64062H1.75781C0.786992 1.64062 0 2.42762 0 3.39844V6.91406C0 7.23766 0.262344 7.5 0.585938 7.5H19.4141C19.7377 7.5 20 7.23766 20 6.91406V3.39844Z" fill="#FF405C"/>
<path d="M18.2422 1.64062H10V7.5H19.4141C19.7377 7.5 20 7.23766 20 6.91406V3.39844C20 2.42762 19.213 1.64062 18.2422 1.64062Z" fill="#E20059"/>
<path d="M0 6.91406V18.2422C0 19.2114 0.788555 20 1.75781 20H18.2422C19.2114 20 20 19.2114 20 18.2422V6.91406H0Z" fill="#F6F6F6"/>
<path d="M10 20H18.2422C19.2114 20 20 19.2114 20 18.2422V6.91406H10V20Z" fill="#E2DFF4"/>
<path d="M7.07031 0.585938V3.28125C7.07031 3.60484 7.33266 3.86719 7.65625 3.86719C7.97984 3.86719 8.24219 3.60484 8.24219 3.28125V0.585938C8.24219 0.262344 7.97984 0 7.65625 0C7.33266 0 7.07031 0.262344 7.07031 0.585938Z" fill="#FFF16B"/>
<path d="M16.4453 0.585938V3.28125C16.4453 3.60484 16.7077 3.86719 17.0312 3.86719C17.3548 3.86719 17.6172 3.60484 17.6172 3.28125V0.585938C17.6172 0.262344 17.3548 0 17.0312 0C16.7077 0 16.4453 0.262344 16.4453 0.585938ZM11.7578 0.585938V3.28125C11.7578 3.60484 12.0202 3.86719 12.3438 3.86719C12.6673 3.86719 12.9297 3.60484 12.9297 3.28125V0.585938C12.9297 0.262344 12.6673 0 12.3438 0C12.0202 0 11.7578 0.262344 11.7578 0.585938Z" fill="#FFC178"/>
<path d="M2.38281 0.585938V3.28125C2.38281 3.60484 2.64516 3.86719 2.96875 3.86719C3.29234 3.86719 3.55469 3.60484 3.55469 3.28125V0.585938C3.55469 0.262344 3.29234 0 2.96875 0C2.64516 0 2.38281 0.262344 2.38281 0.585938Z" fill="#FFF16B"/>
<path d="M16.2737 12.7497L13.93 10.406C13.7011 10.1772 13.3302 10.1772 13.1013 10.406C12.8725 10.6348 12.8725 11.0058 13.1013 11.2346L14.4448 12.5781H4.14062C3.81703 12.5781 3.55469 12.8405 3.55469 13.1641C3.55469 13.4877 3.81703 13.75 4.14062 13.75H14.4448L13.1013 15.0935C12.8725 15.3223 12.8725 15.6933 13.1013 15.9221C13.3302 16.151 13.7011 16.151 13.93 15.9221L16.2737 13.5784C16.5025 13.3496 16.5025 12.9786 16.2737 12.7497Z" fill="#00429B"/>
<path d="M13.93 10.406C13.7011 10.1772 13.3302 10.1772 13.1013 10.406C12.8725 10.6348 12.8725 11.0058 13.1013 11.2346L14.4448 12.5781H10V13.75H14.4448L13.1013 15.0935C12.8725 15.3223 12.8725 15.6933 13.1013 15.9221C13.3302 16.151 13.7011 16.151 13.93 15.9221L16.2737 13.5784C16.5025 13.3496 16.5025 12.9786 16.2737 12.7497L13.93 10.406Z" fill="#38336B"/>
</svg>
