<svg width="38" height="32" viewBox="0 0 38 32" fill="none" xmlns="http://www.w3.org/2000/svg">
<path d="M8.3087 3.51518C8.3137 3.56568 8.3087 3.61668 8.29398 3.66525C8.27926 3.71382 8.25512 3.75901 8.22293 3.79825C8.19075 3.83749 8.15114 3.87 8.10639 3.89393C8.06163 3.91785 8.0126 3.93273 7.9621 3.9377C6.04699 4.12661 4.46846 5.52752 4.03449 7.42376C3.98643 7.63398 3.77643 7.76205 3.57163 7.71414C3.52217 7.70282 3.47542 7.68187 3.43405 7.65248C3.39269 7.6231 3.35752 7.58585 3.33055 7.54286C3.30359 7.49988 3.28535 7.45201 3.2769 7.40197C3.26844 7.35194 3.26992 7.30073 3.28126 7.25128C3.78943 5.03086 5.63999 3.39008 7.88633 3.16857C7.93682 3.16356 7.98781 3.16856 8.03638 3.18328C8.08494 3.19799 8.13013 3.22213 8.16936 3.25432C8.20859 3.28651 8.24109 3.32612 8.26499 3.37088C8.28891 3.41564 8.30376 3.46467 8.3087 3.51518ZM37.1003 6.19192V12.2186C37.1003 16.223 34.7506 19.9004 31.1142 21.5871L29.7476 22.2188C29.6967 22.2423 29.6414 22.2545 29.5854 22.2545C29.5294 22.2545 29.474 22.2423 29.4232 22.2188L28.0573 21.5873C27.8044 21.47 27.5594 21.3408 27.3192 21.2049C27.1438 25.2362 25.4701 28.929 22.6638 31.4161C21.9687 32.0343 21.0072 32.1692 20.1564 31.7692C19.3144 31.3731 18.8114 30.5553 18.8439 29.6348C19.0942 23.5233 17.2799 18.4956 15.4065 18.4956C11.9932 18.4956 11.967 29.6135 11.9644 29.6527C11.9991 30.5617 11.5054 31.3742 10.6756 31.769C9.81399 32.1786 8.84577 32.0328 8.1455 31.417C5.17765 28.7965 3.47588 24.8151 3.47588 20.4933V19.3966C3.47588 17.2807 2.77806 15.1691 1.40203 13.1204C0.484552 11.7442 0 10.1261 0 8.44004C0 3.78609 3.76856 0 8.40059 0C10.2625 0 12.0125 0.580824 13.4614 1.67941C14.6259 2.56346 16.1864 2.56368 17.346 1.68C18.801 0.580601 20.539 0 22.3732 0C24.9657 0 27.3536 1.15325 28.9605 3.16656H33.928C34.0304 3.16656 34.1287 3.20728 34.2012 3.27975C34.2737 3.35221 34.3144 3.4505 34.3144 3.55299C34.3144 4.79977 35.3217 5.80534 36.5667 5.80534H36.7137C36.8163 5.80536 36.9146 5.8461 36.9871 5.91859C37.0596 5.99108 37.1003 6.0894 37.1003 6.19192ZM26.5625 20.7422C23.6569 18.7508 22.0701 15.515 22.0701 12.2195V6.19281C22.0703 6.09014 22.1111 5.99172 22.1837 5.91911C22.2563 5.8465 22.3547 5.80561 22.4574 5.80542H22.6041C23.8505 5.80542 24.8559 4.79152 24.8559 3.55403C24.8559 3.44721 24.8993 3.35064 24.9693 3.28059C25.0052 3.24445 25.0478 3.21577 25.0948 3.19621C25.1418 3.17666 25.1922 3.1666 25.2432 3.16664H27.9431C26.5026 1.63625 24.5139 0.772996 22.3734 0.772996C20.7089 0.772996 19.1319 1.29967 17.8134 2.29581C16.3759 3.39179 14.4385 3.39194 12.9946 2.29522C11.6813 1.29944 10.0928 0.772996 8.40089 0.772996C4.19495 0.772996 0.773219 4.21248 0.773219 8.44011C0.773219 9.9731 1.2129 11.4429 2.04466 12.6906C3.50708 14.8679 4.2491 17.1245 4.2491 19.3967V20.4934C4.2491 24.5937 5.85549 28.3639 8.6568 30.8372C9.22024 31.3326 9.89808 31.2828 10.3438 31.071C10.8984 30.8072 11.2156 30.2864 11.1924 29.6778C11.3322 27.7023 11.4145 17.7227 15.4069 17.7227C18.868 17.7227 19.7687 25.9168 19.6166 29.6641C19.5911 30.3866 20.0487 30.8644 20.4856 31.0699C20.9298 31.2788 21.6006 31.3274 22.151 30.8382C24.8995 28.402 26.5004 24.7318 26.5625 20.7422ZM36.3274 6.56913C34.8941 6.45859 33.7426 5.34738 33.5657 3.93956L25.6048 3.94053C25.4231 5.356 24.2634 6.45785 22.8437 6.5698V12.2186C22.8437 15.8548 24.9609 19.2989 28.3823 20.8858L29.5855 21.4423L30.7894 20.8856C34.1534 19.3252 36.3274 15.9232 36.3274 12.2185V6.56913ZM34.7199 11.2872C34.7199 14.1221 32.4166 16.4285 29.5856 16.4285C26.7545 16.4285 24.4514 14.122 24.4514 11.2872C24.4514 8.45608 26.7545 6.15299 29.5856 6.15299C32.4167 6.15299 34.7199 8.45616 34.7199 11.2872ZM33.947 11.2872C33.947 8.8824 31.9905 6.92591 29.5856 6.92591C27.1808 6.92591 25.2243 8.8824 25.2243 11.2872C25.2243 13.696 27.1808 15.6556 29.5856 15.6556C31.9905 15.6557 33.947 13.696 33.947 11.2872ZM30.9371 9.83739L28.736 11.8976L28.2686 11.3274C28.2364 11.2881 28.1968 11.2556 28.1521 11.2316C28.1074 11.2077 28.0583 11.1928 28.0078 11.1877C27.9573 11.1827 27.9064 11.1877 27.8578 11.2024C27.8092 11.2171 27.764 11.2412 27.7247 11.2734C27.6855 11.3055 27.653 11.3451 27.629 11.3898C27.605 11.4346 27.5901 11.4836 27.5851 11.5341C27.5801 11.5846 27.5851 11.6356 27.5998 11.6842C27.6145 11.7327 27.6386 11.7779 27.6707 11.8172L28.3999 12.7067C28.4334 12.7477 28.475 12.7813 28.5221 12.8055C28.5691 12.8297 28.6206 12.844 28.6734 12.8474C28.7262 12.8509 28.7791 12.8435 28.8289 12.8257C28.8787 12.8079 28.9244 12.78 28.963 12.7439L31.4654 10.4016C31.5402 10.3315 31.5841 10.2346 31.5875 10.1322C31.5909 10.0298 31.5534 9.93018 31.4834 9.85536C31.4133 9.78055 31.3164 9.73662 31.214 9.73325C31.1115 9.72988 31.012 9.76734 30.9371 9.83739Z" fill="url(#paint0_linear_184333_12302)"/>
<defs>
<linearGradient id="paint0_linear_184333_12302" x1="3.10981" y1="26.4158" x2="30.297" y2="-0.771436" gradientUnits="userSpaceOnUse">
<stop offset="0.034" stop-color="#212D5A"/>
<stop offset="0.225" stop-color="#022E8C"/>
<stop offset="0.599" stop-color="#3C58A0"/>
<stop offset="0.867" stop-color="#EA4335"/>
<stop offset="1" stop-color="#EA4335"/>
</linearGradient>
</defs>
</svg>
