<svg width="28" height="24" viewBox="0 0 28 24" fill="none" xmlns="http://www.w3.org/2000/svg">
<path d="M6.23153 2.63638C6.23528 2.67426 6.23152 2.71251 6.22049 2.74893C6.20945 2.78536 6.19134 2.81926 6.1672 2.84869C6.14306 2.87811 6.11336 2.9025 6.07979 2.92044C6.04623 2.93839 6.00945 2.94955 5.97157 2.95328C4.53524 3.09495 3.35135 4.14564 3.02587 5.56782C2.98983 5.72549 2.83233 5.82154 2.67873 5.7856C2.64163 5.77712 2.60656 5.7614 2.57554 5.73936C2.54452 5.71732 2.51814 5.68939 2.49791 5.65715C2.47769 5.62491 2.46402 5.589 2.45767 5.55148C2.45133 5.51396 2.45244 5.47555 2.46094 5.43846C2.84208 3.77315 4.22999 2.54256 5.91475 2.37643C5.95262 2.37267 5.99086 2.37642 6.02728 2.38746C6.06371 2.39849 6.0976 2.4166 6.12702 2.44074C6.15644 2.46489 6.18081 2.49459 6.19875 2.52816C6.21668 2.56173 6.22782 2.59851 6.23153 2.63638ZM27.8252 4.64394V9.16397C27.8252 12.1673 26.0629 14.9253 23.3356 16.1903L22.3107 16.6641C22.2725 16.6818 22.231 16.6909 22.189 16.6909C22.147 16.6909 22.1055 16.6818 22.0674 16.6641L21.043 16.1905C20.8533 16.1025 20.6695 16.0056 20.4894 15.9037C20.3579 18.9272 19.1026 21.6968 16.9979 23.5621C16.4765 24.0257 15.7554 24.1269 15.1173 23.8269C14.4858 23.5298 14.1086 22.9164 14.1329 22.2261C14.3207 17.6424 12.96 13.8717 11.5549 13.8717C8.99494 13.8717 8.97527 22.2101 8.97332 22.2395C8.99934 22.9213 8.62901 23.5307 8.0067 23.8267C7.36049 24.1339 6.63433 24.0246 6.10913 23.5628C3.88323 21.5974 2.60691 18.6113 2.60691 15.37V14.5474C2.60691 12.9605 2.08355 11.3768 1.05152 9.84027C0.363414 8.80813 0 7.59454 0 6.33003C0 2.83957 2.82642 0 6.30044 0C7.69688 0 9.00937 0.435618 10.096 1.25955C10.9694 1.92259 12.1398 1.92276 13.0095 1.26C14.1008 0.435451 15.4042 0 16.7799 0C18.7243 0 20.5152 0.86494 21.7203 2.37492H25.446C25.5228 2.37492 25.5965 2.40546 25.6509 2.45981C25.7053 2.51416 25.7358 2.58788 25.7358 2.66474C25.7358 3.59982 26.4913 4.35401 27.4251 4.35401H27.5353C27.6122 4.35402 27.6859 4.38457 27.7403 4.43894C27.7947 4.49331 27.8252 4.56705 27.8252 4.64394ZM19.9219 15.5567C17.7427 14.0631 16.5526 11.6362 16.5526 9.16464V4.64461C16.5527 4.5676 16.5833 4.49379 16.6378 4.43933C16.6922 4.38487 16.766 4.35421 16.843 4.35406H16.9531C17.8879 4.35406 18.6419 3.59364 18.6419 2.66552C18.6419 2.58541 18.6745 2.51298 18.727 2.46044C18.7539 2.43334 18.7859 2.41183 18.8211 2.39716C18.8564 2.38249 18.8942 2.37495 18.9324 2.37498H20.9573C19.8769 1.22718 18.3854 0.579747 16.7801 0.579747C15.5317 0.579747 14.3489 0.97475 13.3601 1.72186C12.2819 2.54384 10.8289 2.54396 9.74594 1.72141C8.76094 0.974583 7.56958 0.579747 6.30067 0.579747C3.14621 0.579747 0.579914 3.15936 0.579914 6.33008C0.579914 7.47983 0.909678 8.58216 1.53349 9.51797C2.63031 11.1509 3.18683 12.8434 3.18683 14.5475V15.37C3.18683 18.4453 4.39161 21.2729 6.4926 23.1279C6.91518 23.4994 7.42356 23.4621 7.75783 23.3033C8.17379 23.1054 8.41168 22.7148 8.3943 22.2584C8.49915 20.7767 8.56088 13.292 11.5552 13.292C14.151 13.292 14.8265 19.4376 14.7125 22.2481C14.6934 22.79 15.0365 23.1483 15.3642 23.3024C15.6973 23.4591 16.2004 23.4956 16.6133 23.1287C18.6746 21.3015 19.8753 18.5488 19.9219 15.5567ZM27.2455 4.92685C26.1706 4.84395 25.307 4.01054 25.1743 2.95467L19.2036 2.95539C19.0673 4.017 18.1976 4.84339 17.1328 4.92735V9.16397C17.1328 11.8911 18.7207 14.4742 21.2867 15.6644L22.1891 16.0817L23.092 15.6642C25.6151 14.4939 27.2455 11.9424 27.2455 9.16391V4.92685ZM26.0399 8.46539C26.0399 10.5916 24.3124 12.3214 22.1892 12.3214C20.0659 12.3214 18.3385 10.5915 18.3385 8.46539C18.3385 6.34206 20.0658 4.61474 22.1892 4.61474C24.3125 4.61474 26.0399 6.34212 26.0399 8.46539ZM25.4602 8.46539C25.4602 6.6618 23.9929 5.19443 22.1892 5.19443C20.3856 5.19443 18.9182 6.6618 18.9182 8.46539C18.9182 10.272 20.3856 11.7417 22.1892 11.7417C23.9929 11.7417 25.4602 10.272 25.4602 8.46539ZM23.2029 7.37804L21.552 8.92323L21.2014 8.49553C21.1773 8.46609 21.1476 8.44168 21.1141 8.42372C21.0805 8.40575 21.0438 8.39456 21.0059 8.3908C20.968 8.38704 20.9298 8.39078 20.8933 8.4018C20.8569 8.41282 20.823 8.4309 20.7936 8.45502C20.7641 8.47915 20.7397 8.50883 20.7218 8.54238C20.7038 8.57593 20.6926 8.6127 20.6888 8.65057C20.6851 8.68845 20.6888 8.72669 20.6998 8.76312C20.7108 8.79955 20.7289 8.83346 20.7531 8.8629L21.2999 9.53006C21.3251 9.56075 21.3563 9.58595 21.3915 9.6041C21.4268 9.62225 21.4655 9.63296 21.505 9.63558C21.5446 9.63819 21.5843 9.63264 21.6217 9.61928C21.6591 9.60592 21.6933 9.58504 21.7222 9.55791L23.599 7.80118C23.6551 7.74864 23.6881 7.67597 23.6906 7.59914C23.6931 7.52232 23.6651 7.44763 23.6125 7.39152C23.56 7.33541 23.4873 7.30247 23.4105 7.29994C23.3337 7.29741 23.259 7.3255 23.2029 7.37804Z" fill="#F4F5F8"/>
</svg>
