<svg width="80" height="80" viewBox="0 0 80 80" fill="none" xmlns="http://www.w3.org/2000/svg">
<path d="M75.1533 59.0824C68.3736 71.5414 55.169 79.998 39.9905 79.998C24.7423 79.998 11.4891 71.4686 4.73975 58.9186H12.7929C14.4029 58.9186 15.8462 57.9059 16.3829 56.3838L21.5343 41.9388L27.1437 67.5329C27.5166 69.243 29.0084 70.4771 30.7548 70.5286C30.7943 70.5317 30.8367 70.5317 30.8701 70.5317C32.5741 70.5317 34.075 69.4037 34.5449 67.7603L44.0019 34.4797L49.9963 56.7476C50.3299 57.9787 51.2486 58.9611 52.4523 59.3735C53.659 59.7828 54.9932 59.5614 55.9998 58.7852L63.5648 52.9908L68.407 57.9393C69.1256 58.67 70.111 59.0824 71.1359 59.0824H75.1533Z" fill="white"/>
<path d="M79.998 39.9997C79.998 17.9107 62.0876 0 39.999 0C17.9074 0 0 17.9107 0 39.9997C0 43.9172 0.56397 47.7044 1.6161 51.2853H10.1089L18.8231 26.8343C19.3992 25.2272 20.9576 24.1963 22.6617 24.3055C23.9109 24.3843 25.0115 25.0635 25.6452 26.0793V26.0853L25.715 26.1975C25.9151 26.5341 26.0576 26.904 26.1485 27.2982L31.3576 51.073L33.7499 42.6559L34.3018 40.7002L40.4326 19.1296C40.9026 17.4771 42.4156 16.3462 44.1348 16.3522C45.8479 16.3644 47.3427 17.5226 47.7884 19.1782L55.8931 49.2629L61.6177 44.8784C61.654 44.8511 61.6904 44.8269 61.7268 44.8026C62.8517 43.9991 64.2859 43.8869 65.4866 44.4206L65.4957 44.4236C65.6837 44.5055 65.8656 44.6055 66.0415 44.7208L66.0657 44.7389C66.2779 44.8784 66.4781 45.0482 66.663 45.2362L72.7514 51.4521H78.4002L78.3425 51.4217C79.4189 47.8014 79.998 43.9688 79.998 39.9997ZM20.8637 20.8094C18.4047 20.8094 16.4126 18.8113 16.4126 16.3522C16.4126 13.8932 18.4047 11.9011 20.8637 11.9011C23.3227 11.9011 25.3147 13.8932 25.3147 16.3522C25.3147 18.8113 23.3227 20.8094 20.8637 20.8094ZM43.1857 13.1018C40.6721 13.1018 38.6285 11.0612 38.6285 8.54451C38.6285 6.02785 40.6721 3.98724 43.1857 3.98724C45.7054 3.98724 47.746 6.02785 47.746 8.54451C47.746 11.0612 45.7054 13.1018 43.1857 13.1018Z" fill="#C22629"/>
<path d="M33.7474 42.6499L31.3551 51.0671L26.146 27.2922L33.7474 42.6499Z" fill="white"/>
<path d="M61.725 44.8024C61.6886 44.8267 61.6523 44.851 61.6159 44.8782L55.8913 49.2627L47.7866 19.178L61.725 44.8024Z" fill="white"/>
<path d="M78.4023 51.4526H72.7536L66.6652 45.2368C66.4802 45.0488 66.2801 44.879 66.0679 44.7395L78.3447 51.4223L78.4023 51.4526Z" fill="white"/>
<path d="M34.3047 40.7011L33.7498 42.6568L31.3605 51.074L26.1484 27.2991C26.0605 26.905 25.915 26.5351 25.7148 26.1985L34.3047 40.7011Z" fill="white"/>
</svg>
