<svg width="283" height="80" viewBox="0 0 283 80" fill="none" xmlns="http://www.w3.org/2000/svg">
<path d="M75.1533 59.0824C68.3736 71.5414 55.169 79.998 39.9905 79.998C24.7423 79.998 11.4891 71.4686 4.73975 58.9186H12.7929C14.4029 58.9186 15.8462 57.9059 16.3829 56.3838L21.5343 41.9388L27.1437 67.5329C27.5166 69.243 29.0084 70.4771 30.7548 70.5286C30.7943 70.5317 30.8367 70.5317 30.8701 70.5317C32.5741 70.5317 34.075 69.4037 34.5449 67.7603L44.0019 34.4797L49.9963 56.7476C50.3299 57.9787 51.2486 58.9611 52.4523 59.3735C53.659 59.7828 54.9932 59.5614 55.9998 58.7852L63.5648 52.9908L68.407 57.9393C69.1256 58.67 70.111 59.0824 71.1359 59.0824H75.1533Z" fill="white"/>
<path d="M79.998 39.9997C79.998 17.9107 62.0876 0 39.999 0C17.9074 0 0 17.9107 0 39.9997C0 43.9172 0.56397 47.7044 1.6161 51.2853H10.1089L18.8231 26.8343C19.3992 25.2272 20.9576 24.1963 22.6617 24.3055C23.9109 24.3843 25.0115 25.0635 25.6452 26.0793V26.0853L25.715 26.1975C25.9151 26.5341 26.0576 26.904 26.1485 27.2982L31.3576 51.073L33.7499 42.6559L34.3018 40.7002L40.4326 19.1296C40.9026 17.4771 42.4156 16.3462 44.1348 16.3522C45.8479 16.3644 47.3427 17.5226 47.7884 19.1782L55.8931 49.2629L61.6177 44.8784C61.654 44.8511 61.6904 44.8269 61.7268 44.8026C62.8517 43.9991 64.2859 43.8869 65.4866 44.4206L65.4957 44.4236C65.6837 44.5055 65.8656 44.6055 66.0415 44.7208L66.0657 44.7389C66.2779 44.8784 66.4781 45.0482 66.663 45.2362L72.7514 51.4521H78.4002L78.3425 51.4217C79.4189 47.8014 79.998 43.9688 79.998 39.9997ZM20.8637 20.8094C18.4047 20.8094 16.4126 18.8113 16.4126 16.3522C16.4126 13.8932 18.4047 11.9011 20.8637 11.9011C23.3227 11.9011 25.3147 13.8932 25.3147 16.3522C25.3147 18.8113 23.3227 20.8094 20.8637 20.8094ZM43.1857 13.1018C40.6721 13.1018 38.6285 11.0612 38.6285 8.54451C38.6285 6.02785 40.6721 3.98724 43.1857 3.98724C45.7054 3.98724 47.746 6.02785 47.746 8.54451C47.746 11.0612 45.7054 13.1018 43.1857 13.1018Z" fill="#C22629"/>
<path d="M33.7474 42.6499L31.3551 51.0671L26.146 27.2922L33.7474 42.6499Z" fill="white"/>
<path d="M61.725 44.8024C61.6886 44.8267 61.6523 44.851 61.6159 44.8782L55.8913 49.2627L47.7866 19.178L61.725 44.8024Z" fill="white"/>
<path d="M78.4023 51.4526H72.7536L66.6652 45.2368C66.4802 45.0488 66.2801 44.879 66.0679 44.7395L78.3447 51.4223L78.4023 51.4526Z" fill="white"/>
<path d="M34.3047 40.7011L33.7498 42.6568L31.3605 51.074L26.1484 27.2991C26.0605 26.905 25.915 26.5351 25.7148 26.1985L34.3047 40.7011Z" fill="white"/>
<path d="M96.5596 43.6205C96.25 43.6205 95.998 43.3685 95.998 43.0589V18.9617C95.998 18.1625 96.2788 17.4822 96.8368 16.9206C97.3984 16.359 98.0787 16.053 98.8779 15.999H103.968C104.224 15.999 104.447 16.1718 104.512 16.4202L109.303 34.9557C109.447 35.5173 110.243 35.5173 110.387 34.9557L115.185 16.4202C115.25 16.1718 115.473 15.999 115.729 15.999H123.141C123.45 15.999 123.702 16.251 123.702 16.5606V43.0589C123.702 43.3685 123.45 43.6205 123.141 43.6205H118.979C118.67 43.6205 118.418 43.3685 118.418 43.0589V25.8841C118.418 25.2254 117.475 25.1066 117.313 25.7474L112.917 43.1957C112.856 43.4441 112.629 43.6205 112.374 43.6205H107.402C107.147 43.6205 106.923 43.4477 106.859 43.1993L102.384 25.6862C102.222 25.049 101.283 25.1642 101.283 25.8265V43.0625C101.283 43.3721 101.031 43.6241 100.721 43.6241H96.5596V43.6205Z" fill="#C22629"/>
<path d="M140.313 42.7386C139.194 43.3254 138.006 43.6854 136.749 43.8186C135.493 43.9518 134.388 44.0202 133.427 44.0202C131.505 44.0202 129.823 43.4982 128.384 42.4578C126.944 41.4175 126.224 39.6967 126.224 37.2957C126.224 35.053 126.875 33.4511 128.186 32.4935C129.485 31.5396 131.141 30.8988 133.15 30.5784C133.175 30.5748 133.2 30.5712 133.225 30.5712C133.484 30.5676 133.794 30.528 134.15 30.4524C134.525 30.3732 134.95 30.3048 135.432 30.2508C137.779 29.9304 138.956 29.2393 138.956 28.1701C138.956 27.371 138.542 26.849 137.714 26.6078C136.886 26.3666 136.127 26.2478 135.432 26.2478C134.683 26.2478 134.017 26.3558 133.43 26.5682C132.934 26.7482 132.556 27.0614 132.286 27.5077C132.189 27.6733 132.005 27.7705 131.814 27.7705H127.458C127.102 27.7705 126.828 27.4357 126.908 27.0902C127.221 25.7402 127.926 24.6063 129.028 23.6883C130.468 22.4608 132.523 21.8452 135.191 21.8452C138.179 21.8452 140.421 22.3528 141.915 23.3679C143.463 24.4371 144.237 25.931 144.237 27.8497V35.1358C144.237 37.2705 143.848 38.9372 143.074 40.1395C142.3 41.3383 141.379 42.2058 140.313 42.7386ZM139.032 33.7462C139.032 33.3539 138.639 33.0803 138.276 33.2243C137.631 33.4726 136.843 33.7102 135.911 33.9334L134.089 34.3294C134.075 34.333 134.06 34.3366 134.046 34.3402C133.139 34.5958 132.473 34.9198 132.045 35.3158C132.005 35.3554 131.969 35.3986 131.94 35.4454C131.598 36.0069 131.425 36.5721 131.425 37.1337C131.425 37.9329 131.667 38.5736 132.145 39.056C132.624 39.4844 133.319 39.6968 134.226 39.6968C135.72 39.6968 136.893 39.272 137.75 38.4152C138.603 37.5621 139.032 36.3885 139.032 34.8946V33.7462Z" fill="#C22629"/>
<path d="M147.233 43.621C146.924 43.621 146.672 43.369 146.672 43.0595V33.2931C146.672 31.2124 146.978 29.4629 147.593 28.0482C148.205 26.6335 149.048 25.4995 150.117 24.6463C151.132 23.8472 152.32 23.2604 153.681 22.886C155.041 22.5117 156.442 22.3245 157.885 22.3245C157.99 22.3245 158.126 22.3245 158.285 22.3245C158.447 22.3245 158.576 22.3245 158.684 22.3245V27.447C158.684 27.7566 158.432 28.0086 158.123 28.0086H156.841C155.293 28.0086 154.145 28.383 153.4 29.1281C152.651 29.8769 152.28 31.0504 152.28 32.6524V43.0595C152.28 43.369 152.028 43.621 151.719 43.621H147.233Z" fill="#C22629"/>
<path d="M166.485 22.3243V28.6672C166.485 29.1856 167.129 29.4268 167.468 29.0344L173.123 22.5151C173.231 22.3927 173.382 22.3207 173.548 22.3207H178.728C179.217 22.3207 179.473 22.9039 179.138 23.2639L172.694 30.1827C172.525 30.3627 172.496 30.6327 172.622 30.8487L179.603 42.7749C179.822 43.1493 179.552 43.6173 179.12 43.6173H173.706C173.501 43.6173 173.314 43.5057 173.213 43.3257L169.447 36.414C168.648 34.9741 167.954 34.3585 167.367 34.5709C166.78 34.7833 166.485 35.1037 166.485 35.5321V38.4947V43.0593C166.485 43.3689 166.233 43.6209 165.923 43.6209H161.441C161.132 43.6209 160.88 43.3689 160.88 43.0593V16.6402C160.88 16.3306 161.132 16.0786 161.441 16.0786H163.763C164.509 16.0786 165.149 16.345 165.686 16.8778C166.218 17.4105 166.485 18.0261 166.485 18.7209V22.3243Z" fill="#C22629"/>
<path d="M197.507 37.0551H200.758C201.139 37.0551 201.413 37.4295 201.29 37.7931C200.66 39.6758 199.613 41.1374 198.148 42.1777C196.492 43.4053 194.411 44.0208 191.902 44.0208C188.86 44.0208 186.484 43.0345 184.778 41.0582C183.068 39.1358 182.215 36.3892 182.215 32.811C182.215 29.3947 183.043 26.7272 184.695 24.8049C186.401 22.8322 188.777 21.8423 191.819 21.8423C195.023 21.8423 197.503 22.8034 199.264 24.7257C200.97 26.702 201.827 29.4487 201.827 32.973C201.827 33.1853 201.827 33.3725 201.827 33.5345C201.827 33.6929 201.827 33.8009 201.827 33.8549C201.827 33.8585 201.827 33.8621 201.827 33.8693C201.827 34.1753 201.571 34.4165 201.265 34.4165H188.493C188.165 34.4165 187.903 34.7009 187.931 35.0284C188.054 36.3784 188.443 37.4007 189.094 38.0991C189.785 38.9523 190.829 39.3806 192.215 39.3806C193.122 39.3806 193.896 39.1935 194.537 38.8191C194.699 38.7651 194.843 38.6715 194.976 38.5383C195.109 38.4051 195.257 38.2575 195.415 38.0991C195.466 37.9407 195.667 37.7247 196.017 37.4583C196.373 37.1883 196.866 37.0551 197.507 37.0551ZM188.511 30.8095H195.441C195.783 30.8095 196.045 30.5035 195.999 30.1687C195.837 29.0491 195.487 28.196 194.947 27.6092C194.253 26.864 193.266 26.4897 191.985 26.4897C190.811 26.4897 189.85 26.864 189.101 27.6092C188.471 28.2392 188.086 29.0959 187.949 30.1795C187.91 30.5143 188.176 30.8095 188.511 30.8095Z" fill="#C22629"/>
<path d="M204.911 43.6204C204.601 43.6204 204.349 43.3685 204.349 43.0589V18.9616C204.349 18.1625 204.63 17.4821 205.191 16.9205C205.753 16.359 206.433 16.0818 207.233 16.0818H215.159C219.375 16.0818 222.525 17.2013 224.605 19.444C226.686 21.7947 227.726 25.2613 227.726 29.8511C227.726 32.3062 227.352 34.5237 226.607 36.4964C225.754 38.5267 224.63 40.071 223.245 41.1402C222.071 42.0473 220.815 42.6881 219.483 43.0625C218.201 43.4369 216.254 43.6241 213.64 43.6241H204.911V43.6204ZM209.875 38.0947C209.875 38.4043 210.127 38.6563 210.436 38.6563H214.439C217.053 38.6563 218.975 37.9615 220.203 36.5756C221.376 35.294 221.963 33.0514 221.963 29.8511C221.963 26.7553 221.401 24.4874 220.282 23.0475C219.213 21.6075 217.506 20.8876 215.159 20.8876H210.436C210.127 20.8876 209.875 21.1395 209.875 21.4491V38.0947Z" fill="white"/>
<path d="M245.301 37.0551H248.552C248.934 37.0551 249.207 37.4295 249.085 37.7931C248.455 39.6758 247.407 41.1374 245.942 42.1777C244.286 43.4053 242.205 44.0208 239.696 44.0208C236.655 44.0208 234.279 43.0345 232.572 41.0582C230.862 39.1358 230.009 36.3892 230.009 32.811C230.009 29.3947 230.837 26.7272 232.49 24.8049C234.196 22.8322 236.572 21.8423 239.614 21.8423C242.817 21.8423 245.298 22.8034 247.058 24.7257C248.764 26.702 249.621 29.4487 249.621 32.973C249.621 33.1853 249.621 33.3725 249.621 33.5345C249.621 33.6929 249.621 33.8009 249.621 33.8549C249.621 33.8585 249.621 33.8621 249.621 33.8693C249.621 34.1753 249.366 34.4165 249.06 34.4165H236.287C235.96 34.4165 235.697 34.7009 235.726 35.0284C235.848 36.3784 236.237 37.4007 236.889 38.0991C237.58 38.9523 238.624 39.3806 240.01 39.3806C240.917 39.3806 241.691 39.1935 242.331 38.8191C242.493 38.7651 242.637 38.6715 242.771 38.5383C242.904 38.4051 243.051 38.2575 243.21 38.0991C243.26 37.9407 243.462 37.7247 243.811 37.4583C244.167 37.1883 244.661 37.0551 245.301 37.0551ZM236.302 30.8095H243.231C243.573 30.8095 243.836 30.5035 243.789 30.1687C243.627 29.0491 243.278 28.196 242.738 27.6092C242.043 26.864 241.057 26.4897 239.776 26.4897C238.602 26.4897 237.641 26.864 236.892 27.6092C236.262 28.2392 235.877 29.0959 235.74 30.1795C235.701 30.5143 235.967 30.8095 236.302 30.8095Z" fill="white"/>
<path d="M270.715 43.0597C270.715 43.3692 270.463 43.6212 270.153 43.6212H267.91C267.111 43.6212 266.456 43.3692 265.949 42.8617C265.441 42.3541 265.189 41.7025 265.189 40.8998V30.0103C265.189 28.7287 264.8 27.7964 264.03 27.2096C263.256 26.6229 262.388 26.3277 261.427 26.3277C260.466 26.3277 259.613 26.6229 258.864 27.2096C258.115 27.7964 257.745 28.7323 257.745 30.0103V43.0597C257.745 43.3692 257.493 43.6212 257.183 43.6212H252.701C252.392 43.6212 252.14 43.3692 252.14 43.0597V31.1298C252.14 27.5012 253.086 25.0713 254.98 23.8438C256.873 22.6162 258.968 21.9503 261.265 21.8423C263.612 21.8423 265.776 22.4579 267.748 23.6854C269.721 24.9129 270.711 27.3968 270.711 31.1298V43.0597H270.715Z" fill="white"/>
<path d="M282.684 43.0832C282.684 43.382 282.45 43.6304 282.151 43.6448C280.538 43.7168 278.807 43.6808 276.956 43.5368C274.901 43.3784 273.875 42.0681 273.875 39.613V16.6353C273.875 16.3257 274.127 16.0737 274.437 16.0737H276.758C277.45 16.0737 278.065 16.3401 278.602 16.8729C279.134 17.4057 279.401 18.0464 279.401 18.7952V21.8371C279.401 22.1466 279.653 22.3986 279.962 22.3986H282.122C282.432 22.3986 282.684 22.6506 282.684 22.9602V23.5218C282.684 24.3209 282.417 24.9761 281.885 25.4837C281.352 25.9913 280.711 26.2432 279.962 26.2432C279.653 26.2432 279.401 26.4952 279.401 26.8048V38.0939C279.401 39.001 279.933 39.4546 281.003 39.4546H282.122C282.432 39.4546 282.684 39.7066 282.684 40.0162V43.0832Z" fill="white"/>
<path d="M141.031 59.8852H144.807C144.976 59.8852 145.117 59.7484 145.117 59.5756V58.4884C145.117 58.3193 144.98 58.1788 144.807 58.1788H141.031C140.862 58.1788 140.721 58.0421 140.721 57.8693V56.4329C140.721 56.2637 140.858 56.1234 141.031 56.1234H145.39C145.559 56.1234 145.7 55.9865 145.7 55.8138V54.6726C145.7 54.5034 145.563 54.363 145.39 54.363H138.853C138.684 54.363 138.543 54.4998 138.543 54.6726V63.521C138.543 63.6902 138.68 63.8306 138.853 63.8306H145.567C145.736 63.8306 145.876 63.6938 145.876 63.521V62.3799C145.876 62.2107 145.739 62.0703 145.567 62.0703H141.031C140.862 62.0703 140.721 61.9335 140.721 61.7607V60.1876C140.721 60.022 140.858 59.8852 141.031 59.8852Z" fill="white"/>
<path d="M160.675 60.4643L158.158 54.5534C158.108 54.4382 157.996 54.3662 157.874 54.3662H156.182C155.959 54.3662 155.811 54.593 155.898 54.7982L159.717 63.6466C159.767 63.7617 159.879 63.8338 160.001 63.8338H161.758C161.88 63.8338 161.992 63.7617 162.042 63.6466L165.873 54.7982C165.963 54.593 165.811 54.3662 165.588 54.3662H164.084C163.961 54.3662 163.85 54.4382 163.799 54.5534L161.243 60.4679C161.135 60.7163 160.783 60.7127 160.675 60.4643Z" fill="white"/>
<path d="M178.796 59.8852H182.572C182.741 59.8852 182.881 59.7484 182.881 59.5756V58.4884C182.881 58.3193 182.745 58.1788 182.572 58.1788H178.796C178.626 58.1788 178.486 58.0421 178.486 57.8693V56.4329C178.486 56.2637 178.623 56.1234 178.796 56.1234H183.155C183.324 56.1234 183.465 55.9865 183.465 55.8138V54.6726C183.465 54.5034 183.328 54.363 183.155 54.363H176.618C176.449 54.363 176.308 54.4998 176.308 54.6726V63.521C176.308 63.6902 176.445 63.8306 176.618 63.8306H183.331C183.501 63.8306 183.641 63.6938 183.641 63.521V62.3799C183.641 62.2107 183.504 62.0703 183.331 62.0703H178.796C178.626 62.0703 178.486 61.9335 178.486 61.7607V60.1876C178.49 60.022 178.626 59.8852 178.796 59.8852Z" fill="white"/>
<path d="M200.826 59.4388L196.758 54.4782C196.7 54.4062 196.61 54.3666 196.52 54.3666H195.163C194.994 54.3666 194.854 54.5034 194.854 54.6762V63.5246C194.854 63.6938 194.99 63.8342 195.163 63.8342H196.707C196.877 63.8342 197.017 63.6974 197.017 63.5246V58.9492C197.017 58.6576 197.381 58.528 197.564 58.7512L201.643 63.719C201.7 63.791 201.79 63.8306 201.88 63.8306H203.223C203.392 63.8306 203.533 63.6938 203.533 63.521V54.6726C203.533 54.5034 203.396 54.363 203.223 54.363H201.679C201.51 54.363 201.369 54.4998 201.369 54.6726V59.2408C201.373 59.5324 201.009 59.6656 200.826 59.4388Z" fill="white"/>
<path d="M214.492 56.1486H216.903C217.073 56.1486 217.213 56.2853 217.213 56.4581V63.521C217.213 63.6902 217.35 63.8306 217.523 63.8306H219.096C219.265 63.8306 219.405 63.6938 219.405 63.521V56.4581C219.405 56.2889 219.542 56.1486 219.715 56.1486H222.127C222.296 56.1486 222.436 56.0117 222.436 55.839V54.6726C222.436 54.5034 222.3 54.363 222.127 54.363H214.495C214.326 54.363 214.186 54.4998 214.186 54.6726V55.839C214.182 56.0117 214.322 56.1486 214.492 56.1486Z" fill="white"/>
<path d="M239.838 59.8265C239.636 59.5026 239.37 59.2398 239.046 59.0418C238.722 58.8438 238.362 58.6854 237.969 58.5666C237.577 58.4478 237.185 58.347 236.792 58.257C236.4 58.167 236.04 58.077 235.716 57.987C235.392 57.897 235.129 57.7782 234.931 57.6271C234.733 57.4795 234.632 57.2815 234.632 57.0403C234.632 56.8315 234.69 56.6515 234.809 56.4931C234.924 56.3347 235.118 56.2051 235.392 56.1079C235.662 56.0107 236.011 55.9603 236.432 55.9603C236.857 55.9603 237.289 56.0215 237.732 56.1439C238.074 56.2375 238.412 56.3707 238.754 56.5435C238.92 56.6263 239.118 56.5579 239.186 56.3887L239.633 55.2908C239.69 55.1468 239.636 54.9812 239.503 54.9056C239.118 54.6932 238.686 54.5276 238.207 54.4124C237.631 54.272 237.044 54.2036 236.45 54.2036C235.558 54.2036 234.816 54.3368 234.226 54.6032C233.635 54.8696 233.192 55.226 232.901 55.6723C232.609 56.1187 232.462 56.6119 232.462 57.1519C232.462 57.6558 232.562 58.0698 232.764 58.3974C232.966 58.7214 233.232 58.9842 233.556 59.1822C233.88 59.3802 234.24 59.5422 234.632 59.6681C235.025 59.7941 235.417 59.9021 235.81 59.9849C236.202 60.0713 236.562 60.1613 236.886 60.2549C237.21 60.3485 237.473 60.4709 237.671 60.6185C237.869 60.7661 237.969 60.9677 237.969 61.2197C237.969 61.4177 237.908 61.5941 237.779 61.7489C237.653 61.9037 237.455 62.0224 237.192 62.1088C236.925 62.1952 236.576 62.2384 236.144 62.2384C235.576 62.2384 235.014 62.1448 234.46 61.9612C234.031 61.8172 233.646 61.6444 233.304 61.4393C233.149 61.3457 232.944 61.4141 232.868 61.5797L232.379 62.6668C232.318 62.8036 232.357 62.9656 232.483 63.0484C232.876 63.3076 233.365 63.52 233.952 63.6928C234.647 63.8943 235.37 63.9987 236.13 63.9987C237.03 63.9987 237.779 63.862 238.369 63.592C238.959 63.322 239.402 62.9656 239.701 62.5228C240 62.08 240.147 61.5941 240.147 61.0613C240.14 60.5645 240.039 60.1541 239.838 59.8265Z" fill="white"/>
</svg>
