<svg width="32" height="35" viewBox="0 0 32 35" fill="none" xmlns="http://www.w3.org/2000/svg">
<path d="M25.4245 14.115L25.4069 14.1147C24.6984 14.0921 23.9664 13.8636 23.1917 13.6217C21.7626 13.1753 20.1429 12.6693 18.3146 13.4068C17.9592 13.5494 17.5564 13.2785 17.5564 12.895V7.73172C17.5564 7.58557 17.6143 7.44537 17.7176 7.34189C20.5402 4.51486 23.0913 6.13984 25.5583 7.71103C27.3632 8.86066 29.2296 10.05 31.3696 9.73688C31.8009 9.67453 32.1405 10.1391 31.9418 10.532C31.499 11.4068 30.8512 12.1713 29.314 12.1493C29.5877 12.4881 29.9287 13.0909 29.2856 13.3028C28.315 13.6222 27.4195 13.343 26.5595 12.9229C26.6431 13.0978 26.7137 13.2898 26.7137 13.5025C26.714 14.1398 25.8673 14.115 25.4245 14.115ZM20.2433 11.9272C21.4688 11.9272 22.5674 12.2704 23.5206 12.5681C24.1907 12.7775 24.8253 12.9755 25.3677 13.0081C25.2035 12.6492 25.0653 12.1595 25.3831 11.6364C25.5812 11.3106 25.9559 11.3329 26.2436 11.507C26.8773 11.8557 27.4562 12.1738 28.0088 12.2894L27.5775 11.7558C27.2537 11.355 27.6369 10.7516 28.1359 10.8724C29.2185 11.1334 29.8462 11.0774 30.2437 10.8758C28.2518 10.7348 26.5228 9.63343 24.9657 8.64133C22.3861 6.99841 20.6784 6.07584 18.66 7.96485V12.1302C19.1768 11.9944 19.709 11.9262 20.2433 11.9272ZM6.55756 14.1028C6.22512 14.1028 5.72576 14.086 5.46615 13.8496C5.19329 13.6013 5.28296 13.2078 5.41704 12.9121C4.57447 13.3378 3.66183 13.6071 2.68877 13.233C2.07713 12.9979 2.41509 12.4232 2.68574 12.0886C1.14821 12.1101 0.500698 11.3464 0.0578966 10.4713C-0.139916 10.0804 0.198324 9.61108 0.630918 9.67647C2.73623 9.98712 4.58496 8.80631 6.3741 7.66468C8.85186 6.08329 11.4143 4.44782 14.2797 7.27871C14.3845 7.38245 14.4436 7.5237 14.4436 7.6713V12.8346C14.4436 13.2194 14.0369 13.4915 13.681 13.3447C11.9131 12.6139 10.3869 13.1077 8.91145 13.5858C8.0962 13.8493 7.31267 14.1028 6.55756 14.1028ZM6.61661 11.576C6.98961 12.0977 6.78186 12.6357 6.60833 12.9984C7.17749 12.9869 7.83824 12.773 8.57156 12.5355C9.89913 12.1057 11.512 11.5834 13.34 12.0665V7.90664C11.2833 6.00742 9.56365 6.93827 6.96754 8.5947C5.42642 9.57825 3.71536 10.6699 1.75434 10.8142C2.15162 11.0165 2.77927 11.0733 3.86379 10.8117C4.36176 10.6912 4.74746 11.2926 4.42218 11.6951L3.95097 12.2778C4.50661 12.181 5.11218 11.8408 5.85957 11.3897C5.94895 11.3359 6.37851 11.2427 6.61661 11.576Z" fill="url(#paint0_linear_184333_12360)"/>
<path d="M21.9543 22.4105C21.4437 20.65 19.3668 20.002 18.1258 19.6146L17.8897 19.5404C17.4584 19.4037 17.0159 19.3053 16.5673 19.2463V6.40669C18.1029 6.14598 19.2763 4.82171 19.2763 3.22818C19.2763 1.44814 17.8135 0 16.0156 0C14.2176 0 12.7545 1.44814 12.7545 3.22818C12.7545 4.82171 13.9279 6.14598 15.4635 6.40669V19.1663C14.9766 19.1608 14.5166 19.1873 14.0813 19.2137C12.8759 19.2874 11.9241 19.3456 11.0145 18.6471C10.5803 18.3138 9.84916 17.6067 9.8304 16.6165C9.80916 15.4785 10.7723 14.6693 10.9654 14.5187C11.0797 14.4283 11.1536 14.2964 11.171 14.1517C11.1885 14.007 11.1479 13.8613 11.0583 13.7464C10.9687 13.6315 10.8373 13.5568 10.6927 13.5384C10.5481 13.5201 10.4022 13.5596 10.2867 13.6485C9.91317 13.9398 8.69677 15.0164 8.72712 16.6372C8.75443 18.0898 9.75067 19.0683 10.3422 19.5225C11.5793 20.4723 12.8274 20.3965 14.1483 20.3154C14.5768 20.2892 15.0121 20.2646 15.4635 20.2701V24.8074C15.1087 24.8027 14.7743 24.8217 14.4582 24.841C13.6101 24.8929 12.9971 24.9304 12.4031 24.4744C12.12 24.2567 11.643 23.7976 11.6311 23.1675C11.6176 22.4416 12.2439 21.9161 12.3694 21.8181C12.4848 21.7282 12.5598 21.596 12.5778 21.4508C12.5958 21.3056 12.5554 21.1591 12.4654 21.0437C12.3755 20.9283 12.2433 20.8533 12.0981 20.8353C11.9529 20.8173 11.8064 20.8577 11.691 20.9477C11.4123 21.1648 10.5052 21.9682 10.5278 23.1876C10.5483 24.2799 11.2901 25.0107 11.731 25.3492C12.6522 26.0563 13.6043 25.9984 14.5255 25.9421C14.8312 25.9234 15.1418 25.906 15.4635 25.9112V29.7866C15.229 29.7843 14.9945 29.7915 14.7605 29.8081C14.1671 29.8437 13.8421 29.8515 13.5168 29.6018C13.3863 29.5019 13.0823 29.231 13.0757 28.8754C13.0682 28.4717 13.4517 28.1614 13.4953 28.1272C13.6108 28.0373 13.6859 27.9052 13.704 27.7599C13.7221 27.6147 13.6818 27.4682 13.5919 27.3527C13.502 27.2372 13.3699 27.1622 13.2247 27.1441C13.0794 27.126 12.9329 27.1663 12.8175 27.2562C12.6149 27.414 11.9553 27.998 11.9724 28.8958C11.9873 29.7008 12.5258 30.2322 12.845 30.4772C13.5127 30.9898 14.1814 30.9489 14.8281 30.9095C15.0353 30.8968 15.2458 30.8849 15.4638 30.8899V33.6585C15.4638 33.8048 15.5219 33.9451 15.6254 34.0486C15.7289 34.1521 15.8692 34.2102 16.0156 34.2102C16.1619 34.2102 16.3022 34.1521 16.4057 34.0486C16.5092 33.9451 16.5673 33.8048 16.5673 33.6585V31.1043C16.9961 31.2411 17.589 31.458 17.696 31.8274C17.7766 32.1058 17.5892 32.4456 17.4706 32.6236C17.0786 33.2101 17.992 33.8301 18.3879 33.2369C18.783 32.6457 18.9102 32.0522 18.756 31.52C18.4723 30.5423 17.3613 30.1958 16.7643 30.0093L16.6553 29.9751C16.6253 29.9654 16.5966 29.9591 16.5671 29.9505V26.0459C16.6664 26.0701 16.7668 26.0974 16.8694 26.1303L17.0416 26.1843C17.7368 26.4012 18.9 26.7643 19.1193 27.5208C19.2644 28.0207 18.9954 28.5733 18.7444 28.949C18.3526 29.5358 19.2655 30.1552 19.662 29.5623C20.2088 28.744 20.3876 27.9318 20.1793 27.2134C19.7947 25.8875 18.277 25.4138 17.3702 25.131L17.2044 25.0791C16.9952 25.0132 16.7823 24.9596 16.5668 24.9186V20.3595C16.8843 20.4097 17.2118 20.4828 17.5542 20.5918L17.797 20.6682C18.826 20.9894 20.549 21.5268 20.8944 22.7181C21.1245 23.5113 20.7162 24.3613 20.3332 24.9346C19.9412 25.5211 20.8546 26.1405 21.2508 25.5476C21.9869 24.4457 22.23 23.3612 21.9543 22.4105C22.23 23.3612 21.4439 20.65 21.9543 22.4105ZM13.8581 3.22818C13.8581 2.05675 14.8259 1.10356 16.0156 1.10356C17.2052 1.10356 18.1727 2.05675 18.1727 3.22818C18.1727 4.3996 17.2049 5.35307 16.0156 5.35307C14.8262 5.35307 13.8581 4.39988 13.8581 3.22818Z" fill="url(#paint1_linear_184333_12360)"/>
<path d="M21.0878 19.458C20.4864 19.458 20.3346 18.5917 20.9002 18.3873C21.7478 18.0811 22.3042 17.3704 22.318 16.5769C22.331 15.8246 21.838 15.1158 21.0619 14.7712C20.9281 14.7118 20.8234 14.6017 20.7708 14.4652C20.7181 14.3286 20.7219 14.1767 20.7813 14.0429C20.8407 13.9091 20.9508 13.8044 21.0874 13.7517C21.224 13.6991 21.3759 13.7029 21.5097 13.7623C22.6916 14.287 23.4417 15.3991 23.4213 16.5959C23.3995 17.8512 22.5572 18.9617 21.2754 19.4249C21.2136 19.4473 21.1502 19.458 21.0878 19.458ZM14.2518 33.7874C13.9326 33.7873 13.6234 33.6759 13.3776 33.4724C13.0953 33.2378 12.9223 32.8999 12.9027 32.5451C12.8647 31.8518 13.4123 31.2316 14.123 31.1629C14.2675 31.151 14.4108 31.1965 14.522 31.2895C14.6332 31.3824 14.7034 31.5154 14.7173 31.6597C14.7313 31.804 14.6879 31.9479 14.5966 32.0605C14.5052 32.173 14.3733 32.2451 14.2292 32.2612C14.0013 32.2833 13.9362 32.5354 14.1277 32.6532C14.3327 32.7796 14.5614 32.6394 14.7609 32.8557C15.1551 33.2834 14.7335 33.7874 14.2518 33.7874Z" fill="url(#paint2_linear_184333_12360)"/>
<defs>
<linearGradient id="paint0_linear_184333_12360" x1="2.6823" y1="12.6529" x2="6.63981" y2="-0.383316" gradientUnits="userSpaceOnUse">
<stop offset="0.034" stop-color="#212D5A"/>
<stop offset="0.225" stop-color="#022E8C"/>
<stop offset="0.599" stop-color="#3C58A0"/>
<stop offset="0.867" stop-color="#EA4335"/>
<stop offset="1" stop-color="#EA4335"/>
</linearGradient>
<linearGradient id="paint1_linear_184333_12360" x1="9.84459" y1="28.2403" x2="27.4069" y2="22.3343" gradientUnits="userSpaceOnUse">
<stop offset="0.034" stop-color="#212D5A"/>
<stop offset="0.225" stop-color="#022E8C"/>
<stop offset="0.599" stop-color="#3C58A0"/>
<stop offset="0.867" stop-color="#EA4335"/>
<stop offset="1" stop-color="#EA4335"/>
</linearGradient>
<linearGradient id="paint2_linear_184333_12360" x1="13.7828" y1="30.2846" x2="26.5855" y2="24.4967" gradientUnits="userSpaceOnUse">
<stop offset="0.034" stop-color="#212D5A"/>
<stop offset="0.225" stop-color="#022E8C"/>
<stop offset="0.599" stop-color="#3C58A0"/>
<stop offset="0.867" stop-color="#EA4335"/>
<stop offset="1" stop-color="#EA4335"/>
</linearGradient>
</defs>
</svg>
