<svg width="32" height="38" viewBox="0 0 32 38" fill="none" xmlns="http://www.w3.org/2000/svg">
<path d="M30.2361 24.7168C28.3423 23.3727 25.6918 23.8019 24.3289 25.6693C23.395 26.9526 22.46 28.2352 21.524 29.5171C20.4473 28.8695 19.5173 28.9335 19.3253 28.9034C19.329 28.5344 19.329 6.78069 19.329 6.54725H19.8937C20.8651 6.54725 21.652 5.76411 21.652 4.8003V1.73941C21.652 0.783069 20.8651 0 19.8937 0H1.75443C0.786806 0 0 0.783069 0 1.73941V4.8003C0 5.76411 0.786881 6.54725 1.75443 6.54725H2.32671V28.877C2.32671 33.5078 6.14055 37.2728 10.8279 37.2728C11.2872 37.2728 11.739 37.2351 12.1795 37.1636C12.4879 37.2364 12.8038 37.2731 13.1207 37.2728H19.3329C20.2026 37.2728 21.0346 37.013 21.735 36.531C23.6437 37.8337 26.2378 37.3669 27.5743 35.5334C28.8431 33.794 29.9312 32.303 31.2 30.5637C32.5816 28.6662 32.1185 26.0533 30.2361 24.7168ZM1.75443 5.41772C1.41186 5.41772 1.12946 5.14287 1.12946 4.8003V1.73941C1.12946 1.39676 1.40431 1.12946 1.75443 1.12946H19.8938C20.2402 1.12946 20.5225 1.40431 20.5225 1.73941V4.8003C20.5225 5.14287 20.2401 5.41772 19.8938 5.41772H1.75443ZM18.1996 6.54718V15.4587C15.5905 14.8714 13.1923 13.5198 11.114 11.8934C8.89646 10.1578 6.23847 8.64052 3.45616 8.2226V6.54718H18.1996ZM8.88899 33.09C8.88899 34.2759 9.39728 35.349 10.2029 36.1132C6.64884 35.8158 3.80255 33.0259 3.49003 29.5246H7.04411C7.35663 29.5246 7.60884 29.2723 7.60884 28.9599C7.60884 28.6474 7.35656 28.3952 7.04411 28.3952H3.45616V26.1362H5.16918C5.48171 26.1362 5.73391 25.8802 5.73391 25.5714C5.73401 25.4973 5.71947 25.4238 5.69112 25.3552C5.66278 25.2867 5.62119 25.2244 5.56873 25.1719C5.51627 25.1194 5.45397 25.0778 5.38541 25.0495C5.31685 25.0212 5.24337 25.0066 5.16918 25.0067H3.45616V22.744H7.04411C7.35663 22.744 7.60884 22.4917 7.60884 22.1793C7.60884 21.8668 7.35656 21.6145 7.04411 21.6145H3.45616V19.3517H5.16918C5.24337 19.3518 5.31685 19.3373 5.38541 19.3089C5.45397 19.2806 5.51627 19.239 5.56873 19.1866C5.62119 19.1341 5.66278 19.0718 5.69112 19.0032C5.71947 18.9347 5.73401 18.8612 5.73391 18.787C5.73391 18.4783 5.48163 18.2223 5.16918 18.2223H3.45616V15.9633H7.04411C7.35663 15.9633 7.60884 15.711 7.60884 15.3986C7.60884 15.0861 7.35656 14.8338 7.04411 14.8338H3.45616V12.5711H5.16918C5.24337 12.5712 5.31685 12.5567 5.38541 12.5283C5.45397 12.5 5.51627 12.4584 5.56873 12.4059C5.62119 12.3535 5.66278 12.2912 5.69112 12.2226C5.71947 12.1541 5.73401 12.0806 5.73391 12.0064C5.73401 11.9322 5.71947 11.8587 5.69112 11.7902C5.66278 11.7216 5.62119 11.6593 5.56873 11.6068C5.51627 11.5544 5.45397 11.5128 5.38541 11.4844C5.31685 11.4561 5.24337 11.4416 5.16918 11.4417H3.45616V9.36716C5.99374 9.79636 8.40701 11.2082 10.4175 12.782C13.1509 14.9242 15.9105 16.1479 18.1996 16.6222C18.1996 18.8021 18.1996 28.4893 18.1959 28.9034H13.1207C10.7677 28.9033 8.88899 30.7971 8.88899 33.09ZM19.3329 36.1433H16.7916V30.0328H19.3329C19.8863 30.0328 20.4059 30.1796 20.8577 30.4319L20.7033 30.6428C19.5287 32.2504 19.7056 34.3437 20.869 35.7405C20.4 36.0042 19.871 36.1429 19.3329 36.1433ZM30.285 29.8973L28.8016 31.9341C28.5645 31.7647 24.9803 29.2196 23.7679 28.3575L25.2437 26.3357C26.2452 24.9616 28.188 24.649 29.5809 25.6392C30.959 26.6181 31.2941 28.5156 30.285 29.8973Z" fill="url(#paint0_linear_184333_12353)"/>
<defs>
<linearGradient id="paint0_linear_184333_12353" x1="2.68229" y1="30.7684" x2="32.9721" y2="8.33853" gradientUnits="userSpaceOnUse">
<stop offset="0.034" stop-color="#212D5A"/>
<stop offset="0.225" stop-color="#022E8C"/>
<stop offset="0.599" stop-color="#3C58A0"/>
<stop offset="0.867" stop-color="#EA4335"/>
<stop offset="1" stop-color="#EA4335"/>
</linearGradient>
</defs>
</svg>
