<svg width="23" height="20" viewBox="0 0 23 20" fill="none" xmlns="http://www.w3.org/2000/svg">
<path d="M15.1962 9.35329H12.7253V6.18956C12.7253 5.83233 12.4357 5.54272 12.0785 5.54272C11.7212 5.54272 11.4316 5.83233 11.4316 6.18956V10.0001C11.4316 10.3573 11.7212 10.647 12.0785 10.647H15.1962C15.5534 10.647 15.843 10.3573 15.843 10.0001C15.843 9.6429 15.5534 9.35329 15.1962 9.35329Z" fill="#265C76"/>
<path d="M19.1496 2.92902C17.2608 1.04023 14.7496 0 12.0785 0C9.40747 0 6.8963 1.04019 5.00756 2.92894C3.27194 4.66455 2.25292 6.9254 2.09902 9.35317H0.646883C0.518942 9.35315 0.393868 9.39108 0.287485 9.46215C0.181101 9.53323 0.0981858 9.63425 0.0492277 9.75246C0.000269647 9.87066 -0.0125319 10.0007 0.0124423 10.1262C0.0374165 10.2517 0.0990445 10.3669 0.189531 10.4574L3.65365 13.9216C3.77496 14.0429 3.93947 14.111 4.11101 14.111C4.28254 14.111 4.44706 14.0429 4.56836 13.9216L8.03252 10.4574C8.12297 10.3669 8.18456 10.2517 8.20951 10.1262C8.23446 10.0007 8.22165 9.8707 8.1727 9.75251C8.12375 9.63432 8.04085 9.53331 7.9345 9.46222C7.82814 9.39114 7.70309 9.35319 7.57517 9.35317H6.17849C6.50178 6.3837 9.02446 4.06499 12.0785 4.06499C13.6638 4.06499 15.1542 4.68232 16.2752 5.80332C17.3962 6.92428 18.0135 8.41471 18.0135 10C18.0135 13.2726 15.3511 15.935 12.0785 15.935C11.0443 15.935 10.0267 15.6651 9.13666 15.1556C9.12856 15.1504 9.12006 15.1452 9.11101 15.14C8.80241 14.9617 8.45237 14.8678 8.096 14.8674C7.37155 14.8674 6.69665 15.2568 6.33464 15.8837C6.06314 16.3539 5.991 16.9016 6.13153 17.4261C6.26762 17.9342 6.58768 18.3615 7.03515 18.6344C7.04874 18.6438 7.06279 18.6526 7.07733 18.661C8.5913 19.537 10.3206 20 12.0785 20C14.7496 20 17.2609 18.9598 19.1496 17.0711C21.0384 15.1823 22.0785 12.6711 22.0785 10C22.0785 7.32889 21.0383 4.81768 19.1496 2.92902Z" fill="#FF5B5B"/>
<path d="M15.1963 9.35329H12.7254V6.18956C12.7254 5.83233 12.4358 5.54272 12.0786 5.54272V10.647H15.1963C15.5536 10.647 15.8432 10.3573 15.8432 10.0001C15.8432 9.6429 15.5536 9.35329 15.1963 9.35329Z" fill="white"/>
<path d="M19.1497 2.92902C17.2609 1.04023 14.7497 0 12.0786 0V4.06503C13.664 4.06503 15.1543 4.68236 16.2753 5.80336C17.3963 6.92432 18.0137 8.41475 18.0137 10C18.0137 13.2726 15.3512 15.9351 12.0786 15.9351V20C14.7497 20 17.261 18.9598 19.1497 17.0711C21.0385 15.1823 22.0786 12.6711 22.0786 10C22.0786 7.32889 21.0384 4.81768 19.1497 2.92902Z" fill="#FF0059"/>
</svg>
