<svg width="16" height="16" viewBox="0 0 16 16" fill="none" xmlns="http://www.w3.org/2000/svg">
<path d="M14.6668 7.16675C14.9402 7.16675 15.1668 6.94008 15.1668 6.66675V6.00008C15.1668 3.06008 14.2735 2.16675 11.3335 2.16675H7.16683V3.66675C7.16683 3.94008 6.94016 4.16675 6.66683 4.16675C6.3935 4.16675 6.16683 3.94008 6.16683 3.66675V2.16675H4.66683C1.72683 2.16675 0.833496 3.06008 0.833496 6.00008V6.33342C0.833496 6.60675 1.06016 6.83342 1.3335 6.83342C1.9735 6.83342 2.50016 7.36008 2.50016 8.00008C2.50016 8.64008 1.9735 9.16675 1.3335 9.16675C1.06016 9.16675 0.833496 9.39341 0.833496 9.66675V10.0001C0.833496 12.9401 1.72683 13.8334 4.66683 13.8334H6.16683V12.3334C6.16683 12.0601 6.3935 11.8334 6.66683 11.8334C6.94016 11.8334 7.16683 12.0601 7.16683 12.3334V13.8334H11.3335C14.2735 13.8334 15.1668 12.9401 15.1668 10.0001C15.1668 9.72675 14.9402 9.50008 14.6668 9.50008C14.0268 9.50008 13.5002 8.97341 13.5002 8.33342C13.5002 7.69341 14.0268 7.16675 14.6668 7.16675ZM7.16683 9.44675C7.16683 9.72008 6.94016 9.94675 6.66683 9.94675C6.3935 9.94675 6.16683 9.72008 6.16683 9.44675V6.55341C6.16683 6.28008 6.3935 6.05341 6.66683 6.05341C6.94016 6.05341 7.16683 6.28008 7.16683 6.55341V9.44675Z" fill="white"/>
</svg>
